<svg width="51" height="51" viewBox="0 0 51 51" fill="none" xmlns="http://www.w3.org/2000/svg">
<g clip-path="url(#clip0_2275_61)">
<path d="M46.4811 14.0661L46.4796 14.0272C46.4579 13.547 46.4434 13.0388 46.4346 12.4735C46.3938 9.71664 44.2022 7.43622 41.445 7.2821C35.6963 6.96129 31.2491 5.08675 27.4493 1.38307L27.4169 1.35217C26.1775 0.215779 24.3079 0.215779 23.0681 1.35217L23.0357 1.38307C19.2359 5.08675 14.7887 6.96129 9.03999 7.28249C6.28312 7.43622 4.0912 9.71664 4.05038 12.4739C4.04199 13.0354 4.02711 13.5435 4.00537 14.0272L4.00308 14.1176C3.89131 19.9797 3.75245 27.2753 6.19309 33.8972C7.5351 37.5387 9.56756 40.7041 12.2336 43.3061C15.2701 46.2693 19.2473 48.6219 24.0546 50.298C24.211 50.3526 24.3735 50.3968 24.5391 50.43C24.7725 50.4766 25.0075 50.4998 25.2425 50.4998C25.4775 50.4998 25.7128 50.4766 25.9459 50.43C26.1115 50.3968 26.2751 50.3522 26.4323 50.2973C31.2338 48.618 35.2068 46.2644 38.2407 43.3015C40.9056 40.6988 42.9381 37.5326 44.2812 33.8903C46.731 27.2486 46.5925 19.9392 46.4811 14.0661ZM41.5285 32.8752C38.9544 39.8546 33.6997 44.6477 25.4641 47.5278C25.4348 47.5377 25.4035 47.5465 25.371 47.553C25.286 47.5698 25.1994 47.5698 25.1132 47.5526C25.0811 47.5461 25.0498 47.5377 25.0209 47.5278C16.7766 44.6531 11.5184 39.8626 8.94615 32.8829C6.69663 26.779 6.82404 20.0819 6.93657 14.1737L6.93734 14.1409C6.96022 13.6332 6.97548 13.1014 6.98388 12.517C7.00219 11.2929 7.97722 10.2801 9.20364 10.2118C12.4568 10.0302 15.3148 9.40154 17.9408 8.28995C20.5634 7.17987 22.8926 5.61509 25.0609 3.50633C25.1712 3.41325 25.3142 3.41287 25.4241 3.50633C27.5927 5.61509 29.922 7.17987 32.5442 8.28995C35.1702 9.40154 38.0282 10.0302 41.2817 10.2118C42.5081 10.2801 43.4832 11.2929 43.5011 12.5174C43.5099 13.1048 43.5251 13.6366 43.548 14.1409C43.6602 20.056 43.7845 26.7584 41.5285 32.8752Z" fill="#244D4D"/>
<path d="M25.242 13.04C18.3709 13.04 12.7812 18.6301 12.7812 25.5007C12.7812 32.3718 18.3709 37.9618 25.242 37.9618C32.1126 37.9618 37.7027 32.3718 37.7027 25.5007C37.7027 18.6301 32.1126 13.04 25.242 13.04ZM25.242 35.0276C19.9887 35.0276 15.7151 30.754 15.7151 25.5007C15.7151 20.2475 19.9887 15.9739 25.242 15.9739C30.4948 15.9739 34.7684 20.2475 34.7684 25.5007C34.7684 30.754 30.4948 35.0276 25.242 35.0276Z" fill="#244D4D"/>
<path d="M28.8237 21.6323L23.0361 27.4199L21.4652 25.849C20.8922 25.2761 19.9633 25.2761 19.3904 25.849C18.8178 26.422 18.8178 27.3509 19.3904 27.9235L21.9989 30.532C22.2854 30.8185 22.6607 30.9615 23.0361 30.9615C23.4114 30.9615 23.7868 30.8185 24.0733 30.532L30.8986 23.7067C31.4711 23.1337 31.4711 22.2049 30.8986 21.6323C30.3256 21.0589 29.3967 21.0589 28.8237 21.6323Z" fill="#244D4D"/>
</g>
<defs>
<clipPath id="clip0_2275_61">
<rect width="50" height="50" fill="white" transform="translate(0.242188 0.5)"/>
</clipPath>
</defs>
</svg>
