<svg width="51" height="51" viewBox="0 0 51 51" fill="none" xmlns="http://www.w3.org/2000/svg">
<g clip-path="url(#clip0_2275_83)">
<path d="M47.5639 18.2177C46.9041 16.1747 47.1854 13.108 45.4705 10.7402C43.7422 8.35365 40.7362 7.67533 39.0389 6.43392C37.3594 5.2056 35.7969 2.53265 32.9718 1.61077C30.2264 0.714876 27.4189 1.9306 25.2422 1.9306C23.0657 1.9306 20.2585 0.714583 17.5126 1.61068C14.688 2.53236 13.1242 5.20589 11.4458 6.43363C9.75029 7.67357 6.74209 8.35374 5.01406 10.7399C3.30068 13.1058 3.5791 16.1795 2.92051 18.2176C2.29375 20.1574 0.242188 22.4854 0.242188 25.5002C0.242188 28.5169 2.29141 30.836 2.92051 32.7828C3.58027 34.8257 3.29902 37.8924 5.01387 40.2603C6.74209 42.6469 9.74795 43.3251 11.4455 44.5666C13.1247 45.7948 14.6875 48.4679 17.5126 49.3897C20.2562 50.285 23.068 49.0699 25.2422 49.0699C27.4134 49.0699 30.2317 50.2837 32.9718 49.3898C35.7965 48.4681 37.3593 45.7952 39.0386 44.5668C40.7341 43.3269 43.7423 42.6467 45.4703 40.2606C47.1838 37.8946 46.9052 34.8211 47.5639 32.7828C48.1906 30.843 50.2422 28.515 50.2422 25.5002C50.2422 22.4837 48.1935 20.1654 47.5639 18.2177ZM43.847 31.5817C43.0779 33.962 43.2794 36.626 42.3067 37.9692C41.321 39.3302 38.7313 39.9519 36.7329 41.4136C34.7564 42.859 33.3712 45.1503 31.7601 45.676C30.2358 46.1735 27.7519 45.1634 25.2423 45.1634C22.7144 45.1634 20.256 46.1756 18.7244 45.676C17.1135 45.1503 15.7302 42.8606 13.7516 41.4135C11.765 39.9607 9.16055 39.3262 8.17764 37.969C7.20811 36.6303 7.40195 33.9479 6.6376 31.5818C5.88838 29.2635 4.14844 27.2562 4.14844 25.5002C4.14844 23.7425 5.88682 21.7421 6.6374 19.4188C7.40645 17.0385 7.20498 14.3744 8.17764 13.0313C9.16279 11.6711 11.7545 11.0474 13.7516 9.58685C15.7343 8.13675 17.1108 5.85091 18.7242 5.32445C20.2472 4.82757 22.7393 5.83704 25.2421 5.83704C27.7746 5.83704 30.2269 4.82415 31.76 5.32445C33.3707 5.85003 34.7552 8.14066 36.7329 9.58695C38.7191 11.0398 41.3238 11.6743 42.3067 13.0314C43.2765 14.3703 43.0815 17.05 43.8468 19.4186V19.4187C44.596 21.7369 46.3359 23.7443 46.3359 25.5002C46.3359 27.2579 44.5976 29.2583 43.847 31.5817ZM34.2405 19.2312C35.0033 19.994 35.0033 21.2306 34.2405 21.9933L24.4646 31.7693C23.7018 32.5321 22.465 32.532 21.7023 31.7693L16.2439 26.3109C15.4812 25.5481 15.4811 24.3115 16.2438 23.5488C17.0066 22.7861 18.2435 22.786 19.006 23.5488L23.0834 27.6261L31.4782 19.2313C32.241 18.4685 33.4777 18.4685 34.2405 19.2312Z" fill="#244D4D"/>
</g>
<defs>
<clipPath id="clip0_2275_83">
<rect width="50" height="50" fill="white" transform="translate(0.242188 0.5)"/>
</clipPath>
</defs>
</svg>
