<svg width="51" height="51" viewBox="0 0 51 51" fill="none" xmlns="http://www.w3.org/2000/svg">
<g clip-path="url(#clip0_2275_71)">
<path d="M40.9323 20.9121H36.1211V17.6699C36.1211 16.8609 35.4652 16.2051 34.6562 16.2051H1.70703C0.898047 16.2051 0.242188 16.8609 0.242188 17.6699V44.3431C0.242188 45.1521 0.898047 45.8079 1.70703 45.8079H6.69531C8.28945 52.0463 17.0932 52.0421 18.6849 45.8079H31.7994C33.3936 52.0463 42.1973 52.0421 43.789 45.8079H48.7773C49.5863 45.8079 50.2422 45.1521 50.2422 44.3431V30.222C50.2422 25.0885 46.0657 20.9121 40.9323 20.9121ZM12.6901 47.5853C10.9023 47.5853 9.44795 46.1308 9.44795 44.3431C9.62598 40.0419 15.755 40.0432 15.9323 44.3431C15.9323 46.1308 14.4778 47.5853 12.6901 47.5853ZM33.1914 40.2371C32.5288 40.9791 32.0431 41.8814 31.7994 42.8781H18.6849C17.0907 36.6398 8.28701 36.644 6.69531 42.8781H3.17188V19.1347H33.1914V40.2371ZM37.7942 47.5853C36.0064 47.5853 34.5521 46.1308 34.5521 44.3431C34.7301 40.0419 40.8591 40.0432 41.0364 44.3431C41.0364 46.1308 39.582 47.5853 37.7942 47.5853ZM47.3125 42.8782H43.7906C43.1313 40.1798 40.693 38.1712 37.7943 38.1712H36.1211V23.8418H39.4675V33.3601C39.4675 34.169 40.1233 34.8249 40.9323 34.8249H47.3125V42.8782ZM47.3125 31.8951H42.3972V24.0114C45.2114 24.6752 47.3125 27.2079 47.3125 30.222V31.8951Z" fill="#244D4D"/>
<path d="M36.225 12.8587H40.1475C42.0911 12.7813 42.0896 10.0057 40.1475 9.92902H37.9542L38.2503 8.15167H40.1475C42.0911 8.07423 42.0896 5.29865 40.1475 5.22198H38.7386L39.0348 3.44464H41.7165C43.66 3.3672 43.6585 0.591614 41.7165 0.514954H37.7939C37.0778 0.514954 36.4667 1.03263 36.349 1.73898L34.78 11.153C34.6312 12.0461 35.3211 12.8587 36.225 12.8587Z" fill="#222222"/>
<path d="M26.8108 12.8587H30.7334C32.6769 12.7813 32.6754 10.0057 30.7334 9.92902H28.54L28.8362 8.15167H30.7334C32.6769 8.07423 32.6754 5.29865 30.7334 5.22198H29.3246L29.6209 3.44464H32.3024C34.246 3.3672 34.2445 0.591614 32.3024 0.514954H28.3799C27.6638 0.514954 27.0527 1.03263 26.935 1.73898L25.366 11.153C25.2171 12.0461 25.907 12.8587 26.8108 12.8587Z" fill="#244D4D"/>
<path d="M15.5876 12.8388C16.7249 13.0283 17.2053 12.0429 17.2734 11.6347L17.5136 10.1935L20.3975 12.5317C21.0641 13.072 21.9801 12.9058 22.458 12.3163C22.9675 11.6879 22.871 10.7654 22.2426 10.256L20.6146 8.93614H21.9735C22.6895 8.93614 23.3006 8.41847 23.4184 7.71222L24.3339 2.22072C24.4828 1.32755 23.7929 0.514954 22.889 0.514954H17.3975C16.6814 0.514954 16.0703 1.03263 15.9526 1.73898L15.0435 7.19308C15.0431 7.19503 15.0429 7.19708 15.0425 7.19904C15.0417 7.20294 15.0413 7.20685 15.0406 7.21075C15.0373 7.22863 15.0341 7.24659 15.0316 7.26466L14.3834 11.153C14.2504 11.951 14.7896 12.7058 15.5876 12.8388ZM18.6384 3.44464H21.1597L20.7327 6.00646H18.2114L18.6384 3.44464Z" fill="#244D4D"/>
<path d="M6.95671 12.8388C8.09401 13.0284 8.57439 12.0428 8.64245 11.6347L9.09216 8.93627H11.12C13.0635 8.85883 13.0621 6.08324 11.12 6.00658H9.58044L10.0074 3.44476H12.689C14.6326 3.36732 14.6311 0.591736 12.689 0.515076H8.76648C8.05036 0.515076 7.43923 1.03275 7.32155 1.7391L5.75261 11.1532C5.6195 11.951 6.15866 12.7058 6.95671 12.8388Z" fill="#244D4D"/>
</g>
<defs>
<clipPath id="clip0_2275_71">
<rect width="50" height="50" fill="white" transform="translate(0.242188 0.5)"/>
</clipPath>
</defs>
</svg>
